<svg xmlns="http://www.w3.org/2000/svg" viewBox="0 0 176.38 162.67"><defs><style>.cls-1{fill:#fff;}</style></defs><g id="圖層_2" data-name="圖層 2"><g id="圖層_1-2" data-name="圖層 1"><path class="cls-1" d="M147.94,6.67s0,.09,0,.14l-.15-.14Z"/><polygon class="cls-1" points="154.86 117.6 154.86 117.75 154.7 117.6 154.86 117.6"/><path class="cls-1" d="M161.63,73.45V36.83l-6.89-.37V6.67h-6.8c-.13-2.21-.25-4.44-.38-6.67H132.91c-.12,2.29-.22,4.23-.34,6.7H118c-.18,2.92-.33,5.32-.5,8.06H102.71V28.29H80.64V14.58H66c-.18-2.93-.32-5.33-.48-8.06H51C50.85,4.1,50.69,2,50.54,0H36.63v73.7H22.14V88.83h14.3v37.05H22c-.15,2.48-.27,4.43-.39,6.45H14.17V21.51H28.46V.05H0V154.73H21.77v7.94h52V147.94L66,147.42V117.94l7.68-.46V102.94h73.83v14.81h7.31v-14.9l6.95-.34v-14h14.57V73.45ZM58.41,36.54H44.19V15h6.38c.12,2.07.24,4.14.38,6.53h7.46ZM147.5,65.46H133.09v8.06h14.28V88.35H132.92V80.86h-7.83c-.2-2.57-.37-4.65-.56-7h-6.44c-.18,2-.36,4-.58,6.43l-6.52.6c-.12,2.37-.25,4.65-.39,7.33H95.89V73.74h-.15v-.15H74.15V59h28.37v6.37l-6.78.56v7.67h.15v.15h14.6c.19-2.76.36-5.17.55-7.86l6.4-.35c.19-2.05.38-4.13.61-6.52H147.5Zm.3-29.1H125V22l7.54-.49c.12-2.08.24-4,.39-6.43l6.65-.63c.1-2.33.2-4.74.33-7.6h7.86Z"/><polygon class="cls-1" points="154.86 117.75 154.7 117.75 154.7 117.6 154.86 117.75"/><path class="cls-1" d="M161.77,117.6v45.07h-7q0-22.46-.07-44.92v-.15Z"/><path class="cls-1" d="M95.89,73.59v.15h-.14Z"/><polygon class="cls-1" points="147.95 6.81 147.8 6.81 147.8 6.67 147.95 6.81"/><path class="cls-1" d="M95.89,73.59l-.06.07,0,0,0,0h0v-.15Z"/></g></g></svg>