<svg width="177" height="163" viewBox="0 0 177 163" fill="none" xmlns="http://www.w3.org/2000/svg">
<g clip-path="url(#clip0_34_285)">
<path d="M28.44 6.66998C28.44 6.66998 28.44 6.75998 28.44 6.80998L28.59 6.66998H28.44Z" fill="white"/>
<path d="M21.5201 117.6V117.75L21.6801 117.6H21.5201Z" fill="white"/>
<path d="M14.75 73.45V36.83L21.64 36.46V6.67H28.44C28.57 4.46 28.69 2.23 28.82 0H43.47C43.59 2.29 43.69 4.23 43.81 6.7H58.38C58.56 9.62 58.71 12.02 58.88 14.76H73.67V28.29H95.74V14.58H110.38C110.56 11.65 110.7 9.25 110.86 6.52H125.38C125.53 4.1 125.69 2 125.84 0H139.75V73.7H154.24V88.83H139.94V125.88H154.38C154.53 128.36 154.65 130.31 154.77 132.33H162.21V21.51H147.92V0.05H176.38V154.73H154.61V162.67H102.61V147.94L110.38 147.42V117.94L102.7 117.48V102.94H28.87V117.75H21.56V102.85L14.61 102.51V88.51H0.0400085V73.45H14.75ZM117.97 36.54H132.19V15H125.81C125.69 17.07 125.57 19.14 125.43 21.53H117.97V36.54ZM28.88 65.46H43.29V73.52H29.01V88.35H43.46V80.86H51.29C51.49 78.29 51.66 76.21 51.85 73.86H58.29C58.47 75.86 58.65 77.86 58.87 80.29L65.39 80.89C65.51 83.26 65.64 85.54 65.78 88.22H80.49V73.74H80.64V73.59H102.23V59H73.86V65.37L80.64 65.93V73.6H80.49V73.75H65.89C65.7 70.99 65.53 68.58 65.34 65.89L58.94 65.54C58.75 63.49 58.56 61.41 58.33 59.02H28.88V65.46ZM28.58 36.36H51.38V22L43.84 21.51C43.72 19.43 43.6 17.51 43.45 15.08L36.8 14.45C36.7 12.12 36.6 9.71 36.47 6.85H28.61L28.58 36.36Z" fill="white"/>
<path d="M21.5201 117.75H21.6801V117.6L21.5201 117.75Z" fill="white"/>
<path d="M14.61 117.6V162.67H21.61C21.61 147.697 21.6334 132.723 21.6801 117.75V117.6H14.61Z" fill="white"/>
<path d="M80.49 73.59V73.74H80.63L80.49 73.59Z" fill="white"/>
<path d="M28.43 6.80998H28.58V6.66998L28.43 6.80998Z" fill="white"/>
<path d="M80.4901 73.59L80.55 73.66V73.51L80.4901 73.59Z" fill="white"/>
</g>
<defs>
<clipPath id="clip0_34_285">
<rect width="176.38" height="162.67" fill="white" transform="matrix(-1 0 0 1 176.38 0)"/>
</clipPath>
</defs>
</svg>
