<svg width="24" height="24" viewBox="0 0 24 24" fill="none" xmlns="http://www.w3.org/2000/svg">
<g clip-path="url(#clip0_598_496)">
<path d="M11.75 0H17.5672C18.1625 0 18.7344 0.239063 19.1562 0.660938L22.3391 3.84375C22.7609 4.26562 23 4.8375 23 5.43281V15.75C23 16.9922 21.9922 18 20.75 18H11.75C10.5078 18 9.5 16.9922 9.5 15.75V2.25C9.5 1.00781 10.5078 0 11.75 0ZM4.25 6H8V9H5V21H14V19.5H17V21.75C17 22.9922 15.9922 24 14.75 24H4.25C3.00781 24 2 22.9922 2 21.75V8.25C2 7.00781 3.00781 6 4.25 6Z" fill="white"/>
</g>
<defs>
<clipPath id="clip0_598_496">
<rect width="21" height="24" fill="white" transform="translate(2)"/>
</clipPath>
</defs>
</svg>
