<svg width="48" height="48" viewBox="0 0 48 48" fill="none" xmlns="http://www.w3.org/2000/svg">
<path fill-rule="evenodd" clip-rule="evenodd" d="M4 24C4 12.96 12.96 4 24 4C35.04 4 44 12.96 44 24C44 35.04 35.04 44 24 44C12.96 44 4 35.04 4 24ZM33.3808 15L26.3076 22.6219H26.3072L34 33H28.3422L23.162 26.0114L16.6763 33H15L22.4178 25.0074L15 15H20.6578L25.5631 21.6178L31.7045 15H33.3808ZM23.2602 24.099L24.0118 25.0955V25.0959L29.1309 31.8834H31.7052L25.432 23.5655L24.6805 22.569L19.8548 16.1697H17.2802L23.2602 24.099Z" fill="white"/>
</svg>
